<svg height="512pt" viewBox="-17 0 512 512.00204" width="512pt" xmlns="http://www.w3.org/2000/svg"><path d="m239.460938 512c-5.261719 0-14.433594-1.5-33.257813-14.453125-11.953125-8.230469-25.796875-19.675781-40.035156-33.101563-19.410157-18.308593-56.304688-56.210937-85.316407-104.335937-47.027343-78.007813-79.039062-203.15625-80.378906-208.445313-1.660156-6.558593 1.175782-13.429687 6.976563-16.910156 50.070312-30.007812 77.550781-61.796875 91.789062-83.175781 14.921875-22.410156 18.808594-38.367187 19.042969-39.375 1.394531-7.203125 7.660156-12.203125 15.003906-12.203125h212.351563c7.34375 0 13.609375 5 15.007812 12.203125.230469 1.007813 4.117188 16.96875 19.039063 39.375 14.242187 21.382813 41.722656 53.167969 91.789062 83.179687 5.804688 3.476563 8.640625 10.351563 6.976563 16.910157-1.339844 5.289062-33.347657 130.433593-80.378907 208.445312-29.011718 48.125-65.90625 86.023438-85.316406 104.332031-14.238281 13.429688-28.078125 24.875-40.035156 33.101563-18.824219 12.957031-27.996094 14.453125-33.257812 14.453125zm0 0" fill="#7ab4f9"/><path d="m27.21875 239.390625c13.730469 39.441406 32.105469 85.015625 53.632812 120.722656 29.011719 48.125 65.90625 86.023438 85.316407 104.332031 14.238281 13.429688 28.082031 24.875 40.035156 33.101563 18.824219 12.957031 27.996094 14.457031 33.257813 14.457031h.007812v-272.613281zm0 0" fill="#f2f7fc"/><path d="m239.46875 239.390625v272.609375c5.265625 0 14.433594-1.503906 33.25-14.453125 11.953125-8.226563 25.796875-19.675781 40.035156-33.101563 19.410156-18.308593 56.304688-56.207031 85.316406-104.335937 21.523438-35.703125 39.902344-81.277344 53.632813-120.722656h-212.234375zm0 0" fill="#4558fb"/><path d="m451.703125 239.390625c16.269531-46.734375 26.019531-84.855469 26.746094-87.722656 1.664062-6.558594-1.171875-13.433594-6.976563-16.910157-50.066406-30.011718-77.550781-61.796874-91.789062-83.179687-14.921875-22.40625-18.804688-38.367187-19.039063-39.375-1.398437-7.203125-7.664062-12.203125-15.007812-12.203125h-106.167969v239.390625zm0 0" fill="#dae8f7"/><path d="m239.46875 0h-106.183594c-7.34375 0-13.609375 5-15.003906 12.203125-.234375 1.007813-4.121094 16.96875-19.042969 39.375-14.238281 21.382813-41.722656 53.167969-91.789062 83.179687-5.804688 3.476563-8.640625 10.351563-6.976563 16.910157.726563 2.867187 10.476563 40.988281 26.746094 87.722656h212.25zm0 0" fill="#647def"/><path d="m239.835938 345.738281c-58.640626 0-106.347657-47.710937-106.347657-106.347656 0-58.640625 47.707031-106.347656 106.347657-106.347656 58.640624 0 106.347656 47.707031 106.347656 106.34375 0 58.640625-47.707032 106.351562-106.347656 106.351562zm0 0" fill="#2ecb71"/><path d="m133.488281 239.390625c0 58.113281 46.851563 105.476563 104.765625 106.328125v-212.65625c-57.914062.847656-104.765625 48.214844-104.765625 106.328125zm0 0" fill="#82e0aa"/><path d="m225.164062 283.074219c-.246093 0-.496093-.007813-.742187-.019531-4.320313-.207032-8.347656-2.230469-11.09375-5.570313l-19.5625-23.773437c-5.378906-6.539063-4.441406-16.199219 2.097656-21.578126 6.535157-5.378906 16.195313-4.4375 21.574219 2.097657l8.832031 10.734375 33.796875-33.800782c5.984375-5.984374 15.691406-5.984374 21.675782 0 5.988281 5.988282 5.988281 15.691407 0 21.679688l-45.742188 45.742188c-2.878906 2.878906-6.78125 4.488281-10.835938 4.488281zm0 0" fill="#f2f7fc"/><path d="m226.269531 244.964844-8.832031-10.734375c-5.378906-6.535157-15.039062-7.472657-21.574219-2.097657-6.539062 5.378907-7.476562 15.039063-2.097656 21.578126l19.5625 23.773437c2.746094 3.339844 6.777344 5.363281 11.09375 5.570313.246094.011718.496094.019531.742187.019531 4.054688 0 7.957032-1.609375 10.839844-4.492188l2.25-2.25v-43.355469zm0 0" fill="#fff"/></svg>